<svg xmlns="http://www.w3.org/2000/svg" xmlns:svgjs="http://svgjs.com/svgjs" xmlns:xlink="http://www.w3.org/1999/xlink" width="288" height="288"><svg xmlns="http://www.w3.org/2000/svg" width="288" height="288" viewBox="0 0 24 24"><g fill="%23000"><path fill="#fff" d="M13.524 9.415L15.47 7.47a.75.75 0 0 1 1.06 1.06l-1.945 1.946a3 3 0 1 1-1.06-1.06h-.001zM12 13.5a1.5 1.5 0 1 0 0-3 1.5 1.5 0 0 0 0 3z" class="color000 svgShape"/><path fill="#fff" d="M12 22C6.477 22 2 17.523 2 12S6.477 2 12 2s10 4.477 10 10-4.477 10-10 10zm-.75-18.467A8.503 8.503 0 0 0 3.558 11H5v1.5H3.514a8.5 8.5 0 0 0 16.972 0H19V11h1.442a8.503 8.503 0 0 0-7.692-7.467V5h-1.5V3.533z" class="color000 svgShape"/></g></svg></svg>